# xmcd
#
# Track frame offsets:
#	150
#	22614
#	51359
#	68241
#	89335
#	111594
#	132233
#	148582
#	169974
#	194534
#
# Disc length: 2857 seconds
#
# Revision: 5308282
# Processed by: cddbd v1.5.2PL0 Copyright (c) Steve Scherf et al.
# Submitted via: EZCDAudioConverter 8.0.2.1
#
DISCID=910b270a
DTITLE=Various Artist - st. Thanh Tùng. Trái Tim Không Ngủ Yên
DYEAR=1998
DGENRE=Contemporary Pop
TTITLE0=Bằng Kiều, Mỹ Linh - Trái Tim Không Ngủ Yên
TTITLE1=Trần Thu Hà - Chuyện tình của biển
TTITLE2=Thanh Hòa - Câu chuyển nhỏ của tôi
TTITLE3=Lam Trường - Tình không biên giới
TTITLE4=Tam Ca Áo Trắng - Mưa ngâu
TTITLE5=Bằng Kiều - Giọt sương trên mi mắt
TTITLE6=Thủy Tiên - Phố biển
TTITLE7=Ngọc Anh - Vĩnh biệt mùa hè
TTITLE8=Thu Phương - Lời tỏ tình mùa xuân
TTITLE9=Tam Ca 3A - Hát với chú ve con
EXTD=
EXTT0=
EXTT1=
EXTT2=
EXTT3=
EXTT4=
EXTT5=
EXTT6=
EXTT7=
EXTT8=
EXTT9=
PLAYORDER=
